# xmcd
#
# Track frame offsets:
#	150
#	13277
#	24304
#	33206
#	48731
#	59631
#	72393
#	80552
#	95259
#	110239
#	130656
#	143089
#	157913
#	170152
#	184921
#	197086
#	210155
#	220911
#	238589
#	255023
#
# Disc length: 3633 seconds
#
# Revision: 1
# Processed by: cddbd v1.4PL0 Copyright (c) Steve Scherf et al.
# Submitted via: audiograbber 1.81.03
#
DISCID=1a0e2f14
DTITLE=Allison Durbin - Country Classics
DYEAR=1996
DGENRE=Country
TTITLE0=I Have Loved Me A Man
TTITLE1=Silver Threads And Golden Needles
TTITLE2=Born A Woman
TTITLE3=Blanket On The Ground
TTITLE4=Sweet Dreams
TTITLE5=Love Letters
TTITLE6=Blue Moon Of Kentucky
TTITLE7=Help Me Make It Through The Night
TTITLE8=If I Said You Had A Beautiful Body Would You Hold It Against Me
TTITLE9=Sometimes When We Touch - Three Times A Lady
TTITLE10=I Don't Want To Play House
TTITLE11=Don't It Make My Brown Eyes Blue
TTITLE12=Rockabilly Rebel
TTITLE13=Tar And Cement
TTITLE14=Rose Garden
TTITLE15=Crazy
TTITLE16=Oh Boy
TTITLE17=Bright Eyes
TTITLE18=It's A Heartache
TTITLE19=Blue Bayou
EXTD=
EXTT0=
EXTT1=
EXTT2=
EXTT3=
EXTT4=
EXTT5=
EXTT6=
EXTT7=
EXTT8=
EXTT9=
EXTT10=
EXTT11=
EXTT12=
EXTT13=
EXTT14=
EXTT15=
EXTT16=
EXTT17=
EXTT18=
EXTT19=
PLAYORDER=
